<svg xmlns="http://www.w3.org/2000/svg" viewBox="0 0 420 360" fill="none">
  <defs>
    <linearGradient id="ocean" x1="0" y1="0" x2="420" y2="360" gradientUnits="userSpaceOnUse">
      <stop stop-color="#07364A"/>
      <stop offset="1" stop-color="#0D6A74"/>
    </linearGradient>
    <linearGradient id="land" x1="85" y1="65" x2="330" y2="302" gradientUnits="userSpaceOnUse">
      <stop stop-color="#D6D0A4"/>
      <stop offset="1" stop-color="#A8BC7F"/>
    </linearGradient>
  </defs>
  <rect width="420" height="360" rx="28" fill="url(#ocean)"/>
  <path d="M86 86c18-30 64-50 115-48 45 2 101 22 131 61 29 36 31 98 8 139-24 43-80 84-146 90-72 7-149-26-181-86-26-50-8-112 31-156 12-13 27-21 42-27Z" fill="url(#land)" stroke="#F0F3D2" stroke-width="4"/>
  <path d="M235 68c15 18 22 42 13 72-11 34-26 48-27 82-1 21 14 43 34 61" stroke="#82A7AA" stroke-width="7" stroke-linecap="round" opacity=".4"/>
</svg>
